Coordinates
version=1
nRows=22
nColumns=24
inDegrees=yes

Units are S.I. units (second, meters, Newtons, ...)
Angles are in degrees.

endheader
time	pelvis_tilt	pelvis_list	pelvis_rotation	pelvis_tx	pelvis_ty	pelvis_tz	hip_flexion_r	hip_adduction_r	hip_rotation_r	knee_angle_r	ankle_angle_r	subtalar_angle_r	mtp_angle_r	hip_flexion_l	hip_adduction_l	hip_rotation_l	knee_angle_l	ankle_angle_l	subtalar_angle_l	mtp_angle_l	lumbar_extension	lumbar_bending	lumbar_rotation
      0.58800000	      0.48930837	      6.48908952	     -1.54147710	     -0.83276006	      1.05506941	      0.34155123	     21.73706753	     -1.84159274	     -9.42155908	      0.75164801	     -0.04617447	     -2.07495825	      0.07479485	    -15.16538895	     11.67682032	      1.17562811	     -3.88193458	      5.60672291	     -4.35287451	      0.18026913	      3.03299870	     -4.46198130	     -0.78268725
      0.59216667	      0.52429184	      6.50116894	     -1.57578697	     -0.82712845	      1.05474132	      0.34146148	     21.68327045	     -1.80110247	     -9.30195140	      0.32682507	     -0.01954560	     -2.07495735	      0.08437575	    -15.30478240	     11.70539076	      1.19307867	     -4.32214739	      5.60185454	     -4.38624369	      0.18557578	      3.07661630	     -4.38076624	     -0.82759957
      0.59633333	      0.61116568	      6.52238902	     -1.70543942	     -0.82154775	      1.05444664	      0.34156118	     21.57835549	     -1.73740141	     -8.93522334	     -0.12831681	      0.23994659	     -2.21867766	      0.13584630	    -15.47162321	     11.76132740	      1.11080223	     -4.79579132	      5.62416947	     -4.49932794	      0.21937037	      2.95264467	     -4.39912323	     -0.98133643
      0.60050000	      0.65087578	      6.53726705	     -1.79104953	     -0.81587290	      1.05412887	      0.34150666	     21.52087860	     -1.69365363	     -8.70471424	     -0.61647546	      0.25095952	     -2.43019744	      0.16978952	    -15.59259226	     11.80431198	      1.11762770	     -5.26584545	      5.55453184	     -4.47832090	      0.24890158	      2.94200883	     -4.33969757	     -1.05725870
      0.60466667	      0.73848554	      6.53524278	     -1.85454082	     -0.81020987	      1.05392335	      0.34169161	     21.34159120	     -1.62195158	     -8.12263306	     -0.99534258	      0.21224185	     -3.04220947	      0.26148720	    -15.71789771	     11.79541898	      0.92658196	     -5.82777865	      5.48392629	     -4.36872397	      0.34591886	      2.90887691	     -4.40879131	     -1.15846636
      0.60883333	      0.74645026	      6.54641704	     -1.90102800	     -0.80446216	      1.05363345	      0.34159348	     21.29736195	     -1.59522288	     -7.94346691	     -1.49304991	      0.10113678	     -3.21205444	      0.29215740	    -15.76128184	     11.81848869	      0.89276157	     -6.39595248	      5.43186384	     -4.28260412	      0.38544385	      2.92070133	     -4.27816397	     -1.18823178
      0.61300000	      0.78683477	      6.52811019	     -1.86853581	     -0.79864244	      1.05348171	      0.34142578	     21.16404178	     -1.57103583	     -7.77872517	     -1.92623292	      0.04385902	     -3.24626363	      0.29999262	    -15.82362493	     11.78314670	      0.89385036	     -7.01776679	      5.37607574	     -4.26691634	      0.39570097	      3.01305147	     -4.22423301	     -1.19269110
      0.61716667	      0.82836607	      6.52766794	     -2.09217994	     -0.79289046	      1.05319528	      0.34200750	     21.02999981	     -1.43407943	     -6.94262118	     -2.29185379	     -0.34437513	     -4.13198671	      0.39605965	    -15.82493338	     11.79097522	      0.33270322	     -7.67452198	      5.17891689	     -3.71503264	      0.55745926	      3.04771165	     -4.33235748	     -1.23611576
      0.62133333	      0.85814219	      6.47440425	     -2.06960485	     -0.78701106	      1.05310518	      0.34212001	     20.85164690	     -1.34767060	     -6.57899598	     -2.61884252	     -0.72347981	     -4.84569709	      0.52475586	    -15.81281435	     11.68423832	      0.08473615	     -8.41621735	      5.25548249	     -3.22305681	      0.79853884	      3.02978496	     -4.16482810	     -1.21127887
      0.62550000	      0.89974169	      6.45550336	     -2.04883591	     -0.78118756	      1.05304096	      0.34194078	     20.69797123	     -1.33688593	     -6.44067940	     -3.01876909	     -0.79762545	     -4.83882078	      0.53374953	    -15.80943772	     11.64194303	      0.04621537	     -9.15440216	      5.16900784	     -3.21452766	      0.81367576	      3.09476937	     -4.08172427	     -1.21975094
      0.62966667	      0.86576874	      6.41539423	     -2.09864891	     -0.77528825	      1.05287134	      0.34209869	     20.61921784	     -1.25083658	     -6.19224151	     -3.38926206	     -1.16015822	     -4.95355310	      0.56704182	    -15.66729273	     11.56689861	     -0.39737327	     -9.96819182	      4.86610917	     -2.97061380	      0.88460462	      2.99561771	     -3.99000059	     -1.26693790
      0.63383333	      0.90131606	      6.34118030	     -2.16647707	     -0.76929436	      1.05284464	      0.34238486	     20.41894494	     -1.12335639	     -5.81717738	     -3.66124019	     -1.69570386	     -5.29189809	      0.62001484	    -15.59038866	     11.44110079	     -0.89181365	    -10.80757607	      4.53816867	     -2.45428750	      1.01624496	      3.07866764	     -3.92813152	     -1.29877896
      0.63800000	      0.96231537	      6.29597360	     -2.30195243	     -0.76345204	      1.05282611	      0.34275325	     20.22309591	     -1.01079711	     -5.37868475	     -3.96869797	     -2.29802333	     -6.04022494	      0.71721310	    -15.51008904	     11.35669292	     -1.37327197	    -11.67681053	      4.39587592	     -1.65589232	      1.28012119	      3.18957599	     -3.80775613	     -1.31979692
      0.64216667	      0.98283723	      6.21473293	     -2.30158049	     -0.75749114	      1.05288257	      0.34292284	     20.03026428	     -0.91327800	     -5.15710075	     -4.24163638	     -2.70663346	     -6.37639701	      0.79495702	    -15.36031068	     11.19210911	     -1.79713144	    -12.63597485	      4.17003184	     -1.24272655	      1.49056692	      3.19155950	     -3.68927799	     -1.33004725
      0.64633333	      1.02212862	      6.09697659	     -2.29487767	     -0.75142241	      1.05302100	      0.34322954	     19.76057157	     -0.77122960	     -4.73461895	     -4.40722327	     -3.28256650	     -6.88377204	      0.92437945	    -15.21965305	     10.96097260	     -2.22612789	    -13.61997035	      3.90274357	     -0.57179368	      1.86156986	      3.29529088	     -3.60207555	     -1.32814388
      0.65050000	      1.05774340	      6.02737284	     -2.34210375	     -0.74552236	      1.05311724	      0.34333726	     19.59892520	     -0.69251904	     -4.69588232	     -4.75809329	     -3.67472324	     -7.09796613	      0.99460547	    -15.02750108	     10.81866125	     -2.68735561	    -14.65718492	      3.53611331	     -0.21243175	      2.07303382	      3.27404994	     -3.42573519	     -1.36073623
      0.65466667	      1.09277917	      5.91286670	     -2.34692954	     -0.73950305	      1.05328700	      0.34350676	     19.38724108	     -0.57438902	     -4.56275378	     -5.02638505	     -4.14057871	     -7.31030869	      1.06197113	    -14.81777728	     10.59266427	     -3.16035347	    -15.73976573	      3.06722029	      0.26246946	      2.29138074	      3.28652126	     -3.26008013	     -1.39500290
      0.65883333	      1.14150406	      5.76689159	     -2.33982785	     -0.73347208	      1.05350435	      0.34403621	     19.10400738	     -0.39106044	     -4.11348719	     -5.18891995	     -4.75465212	     -8.26897847	      1.30345107	    -14.58516045	     10.27596606	     -3.71919967	    -16.91072985	      2.89040332	      1.13543344	      3.11873307	      3.30181546	     -3.15408364	     -1.40590822
      0.66300000	      1.15555006	      5.62416943	     -2.28195529	     -0.72741620	      1.05372448	      0.34404784	     18.91719295	     -0.27808561	     -4.16103832	     -5.49850562	     -4.95938609	     -8.19745318	      1.33209860	    -14.29955896	      9.99224544	     -4.10833539	    -18.10012451	      2.44707980	      1.26939532	      3.21085663	      3.24661093	     -2.98006869	     -1.43177571
      0.66716667	      1.23550275	      5.48978353	     -2.32492107	     -0.72141484	      1.05400001	      0.34412815	     18.69216767	     -0.15716450	     -4.16663599	     -5.83692221	     -5.41758419	     -8.25529448	      1.39205655	    -14.06332706	      9.73930303	     -4.54551270	    -19.27359634	      1.57286492	      1.82889439	      3.43659513	      3.32510966	     -2.70036744	     -1.48386748
      0.67133333	      1.28071812	      5.32571894	     -2.31208643	     -0.71539549	      1.05427175	      0.34429464	     18.47838588	     -0.00680428	     -4.14140359	     -6.15047537	     -5.75275335	     -8.43180883	      1.45414785	    -13.75191852	      9.41037517	     -4.99501326	    -20.53926547	      0.92450860	      2.30932008	      3.68935468	      3.31911072	     -2.46886838	     -1.52852276
      0.67550000	      1.33461072	      5.13837026	     -2.28893380	     -0.70937251	      1.05457242	      0.34449763	     18.24417967	      0.16656000	     -4.08994989	     -6.45409052	     -6.06252196	     -8.64430654	      1.52099491	    -13.42481569	      9.03777665	     -5.42116602	    -21.84690943	      0.22860086	      2.81345719	      3.97892257	      3.31683849	     -2.22624666	     -1.57238199
